# AST/ASF file generated using VICON BodyLanguage
# -----------------------------------------------
:version 1.10
:name VICON
:units
  mass 1.0
  length 0.45
  angle deg
:documentation
   .ast/.asf automatically generated from VICON data using
   VICON BodyBuilder and BodyLanguage model FoxedUp or BRILLIANT.MOD
:root
   order TX TY TZ RX RY RZ
   axis XYZ
   position 0 0 0  
   orientation 0 0 0 
:bonedata
  begin
     id 1 
     name lhipjoint
     direction 0.561145 -0.797705 0.220866 
     length 2.46425 
     axis 0 0 0  XYZ
  end
  begin
     id 2 
     name lfemur
     direction 0.34202 -0.939693 0  
     length 7.95556  
     axis 0 0 20  XYZ
    dof rx ry rz
    limits (-160.0 20.0)
           (-70.0 70.0)
           (-60.0 70.0)
  end
  begin
     id 3 
     name ltibia
     direction 0.34202 -0.939693 0   
     length 7.9832   
     axis 0 0 20   XYZ
    dof rx
    limits (-10.0 170.0)
  end
  begin
     id 4 
     name lfoot
     direction 0.0723927 -0.198897 0.977343   
     length 2.23085   
     axis -90 7.62852e-016 20   XYZ
    dof rx rz
    limits (-45.0 90.0)
           (-70.0 20.0)
  end
  begin
     id 5 
     name ltoes
     direction 1.53826e-011 -4.21988e-011 1   
     length 1.12127   
     axis -90 7.62852e-016 20   XYZ
    dof rx
    limits (-90.0 20.0)
  end
  begin
     id 6 
     name rhipjoint
     direction -0.610499 -0.763299 0.21134   
     length 2.57533  
     axis 0 0 0  XYZ 
  end
  begin
     id 7 
     name rfemur
     direction -0.34202 -0.939693 0   
     length 8.65257   
     axis 0 0 -20   XYZ
    dof rx ry rz
    limits (-160.0 20.0)
           (-70.0 70.0)
           (-70.0 60.0)
  end
  begin
     id 8 
     name rtibia
     direction -0.342021 -0.939692 0   
     length 7.37807   
     axis 0 0 -20   XYZ
    dof rx
    limits (-10.0 170.0)
 end
 begin
     id 9 
     name rfoot
     direction -0.0239304 -0.0543852 0.998233   
     length 1.87018  
     axis -90 -7.62852e-016 -20   XYZ
    dof rx rz
    limits (-45.0 90.0)
           (-20.0 70.0)
  end
  begin
     id 10 
     name rtoes
     direction -1.53584e-011 -4.2242e-011 1   
     length 0.951568   
     axis -90 -7.62852e-016 -20   XYZ
    dof rx
    limits (-90.0 20.0)
  end
  begin
     id 11 
     name lowerback
     direction 0.00322089 0.999033 0.0438587   
     length 2.07568   
     axis 0 0 0   XYZ
    dof rx ry rz
    limits (-20.0 45.0)
           (-30.0 30.0)
           (-30.0 30.0)
  end
  begin
     id 12 
     name upperback
     direction -0.00321932 0.999732 -0.0229403   
     length 2.06253   
     axis 0 0 0   XYZ
    dof rx ry rz
    limits (-20.0 45.0)
           (-30.0 30.0)
           (-30.0 30.0)
  end
  begin
     id 13 
     name thorax
     direction -0.00537537 0.998955 -0.0453918   
     length 2.06975   
     axis 0 0 0   XYZ
    dof rx ry rz
    limits (-20.0 45.0)
           (-30.0 30.0)
           (-30.0 30.0)
  end
  begin
     id 14 
     name lowerneck
     direction -0.00013604 0.994111 0.108363   
     length 1.50836   
     axis 0 0 0   XYZ
    dof rx ry rz
    limits (-20.0 45.0)
           (-30.0 30.0)
           (-30.0 30.0)
  end
  begin
     id 15 
     name upperneck
     direction 0.0397262 0.983859 -0.174482   
     length 1.53037   
     axis 0 0 0   XYZ
    dof rx ry rz
    limits (-20.0 45.0)
           (-30.0 30.0)
           (-30.0 30.0)
  end
  begin
     id 16
     name head
     direction 0.0109991 0.997082 -0.0755378  
     length 1.56928  
     axis 0 0 0   XYZ
    dof rx ry rz
    limits (-20.0 45.0)
           (-30.0 30.0)
           (-30.0 30.0)
  end
  begin
     id 17 
     name lclavicle
     direction 0.964749 0.254 -0.068874  
     length 3.26503  
     axis 0 0 0   XYZ
    dof ry rz
    limits (-20.0 10.0)
           (0.0 20.0)
  end
  begin
     id 18 
     name lhumerus
     direction 1 -4.48941e-011 -2.05079e-027   
     length 5.68236   
     axis 180 -30 -90   XYZ
    dof rx ry rz
    limits (-60.0 90.0)
           (-90.0 90.0)
           (-90.0 90.0)
  end
  begin
     id 19
     name lradius
     direction 1 -4.48956e-011 6.2882e-027   
     length 3.17112   
     axis 180 -30 -90   XYZ
    dof rx
    limits (-10.0 170.0)
  end
  begin
     id 20
     name lwrist
     direction 1 -4.49014e-011 1.73219e-026   
     length 1.58556   
     axis -1.04724e-014 90 90   XYZ
    dof ry
    limits (-180.0 0.0)
 end
  begin
     id 21 
     name lhand
     direction 1 -4.49312e-011 3.46438e-026   
     length 0.632691   
     axis -2.21057e-014 90 90   XYZ
    dof rx rz
    limits (-90.0 90.0)
           (-45.0 45.0)
  end
  begin
     id 22 
     name lfingers
     direction 1 -4.48894e-011 6.92876e-026   
     length 0.510091   
     axis -4.42114e-014 90 90   XYZ
    dof rx
    limits (0.0 90.0)
  end
  begin
     id 23
     name lthumb
     direction 0.707107 -6.34705e-011 0.707107   
     length 0.732392   
     axis -90 45 2.85299e-015   XYZ
    dof rx rz
    limits (-45.0 45.0)
           (-45.0 45.0)
  end
  begin
     id 24 
     name rclavicle
     direction -0.954374 0.280496 -0.102435   
     length 3.25419  
     axis 0 0 0   XYZ 
    dof ry rz
    limits (-10.0 20.0)
           (-20.0 0.0)
  end
  begin
     id 25 
     name rhumerus
     direction -1 -4.48994e-011 -1.07204e-017  
     length 5.8712   
     axis 180 30 90   XYZ
    dof rx ry rz
    limits (-90.0 60.0)
           (-90.0 90.0)
           (-90.0 90.0)
  end
  begin
     id 26 
     name rradius
     direction -1 -4.48972e-011 5.89292e-027   
     length 3.37589   
     axis 180 30 90   XYZ
    dof rx
    limits (-10.0 170.0)
  end
  begin
     id 27 
     name rwrist
     direction -1 -4.48942e-011 1.73219e-026   
     length 1.68794   
     axis -1.04724e-014 -90 -90   XYZ
    dof ry
    limits (-180.0 0.0)
  end
  begin
     id 28
     name rhand
     direction -1 -4.48514e-011 3.46438e-026   
     length 0.603257   
     axis -2.21057e-014 -90 -90   XYZ
    dof rx rz
    limits (-90.0 90.0)
           (-45.0 45.0)
  end
  begin
     id 29
     name rfingers
     direction -1 -4.50028e-011 6.92876e-026   
     length 0.486362   
     axis -4.42114e-014 -90 -90   XYZ
    dof rx
    limits (0.0 90.0)
  end
  begin
     id 30
     name rthumb
     direction -0.707107 -6.34926e-011 0.707107   
     length 0.698321   
     axis -90 -45 -2.85299e-015   XYZ
    dof rx rz
    limits (-45.0 45.0)
           (-45.0 45.0)
  end
:hierarchy
  begin
    root lhipjoint rhipjoint lowerback
    lhipjoint lfemur
    lfemur ltibia
    ltibia lfoot
    lfoot ltoes
    rhipjoint rfemur
    rfemur rtibia
    rtibia rfoot
    rfoot rtoes
    lowerback upperback
    upperback thorax
    thorax lowerneck lclavicle rclavicle
    lowerneck upperneck
    upperneck head
    lclavicle lhumerus
    lhumerus lradius
    lradius lwrist
    lwrist lhand lthumb
    lhand lfingers
    rclavicle rhumerus
    rhumerus rradius
    rradius rwrist
    rwrist rhand rthumb
    rhand rfingers
  end

#!OML:ASF I:\Segmentation\Patient Classification 1\Patient 1\Session 1\Patient1.ASF
:FULLY-SPECIFIED
:DEGREES
1349
root 20.5019 15.7583 -0.480343 -627.225 -91.4457 254.973
lowerback 11.6106 1.01673 -1.53269
upperback 11.6933 0.523008 0.0016828
thorax 5.81364 -0.154678 0.794439
lowerneck -16.4804 -2.2418 -3.91184
upperneck 7.86945 -2.64136 4.00608
head 5.14297 -1.13555 1.64892
rclavicle 1.88845e-015 3.32964e-015
rhumerus 12.5692 8.39084 -36.9034
rradius 64.8076
rwrist -8.86173
rhand -10.4677 26.3789
rfingers 7.12502
rthumb 15.5332 -3.01725
lclavicle 1.88845e-015 3.32964e-015
lhumerus -11.6344 -19.8807 83.3278
lradius 46.8749
lwrist 22.9329
lhand -12.2993 39.748
lfingers 7.12502
lthumb 13.7686 69.2724
rfemur -37.1575 -4.60928 16.3167
rtibia 60.7375
rfoot -6.22459 1.57248
rtoes 47.9635
lfemur -38.349 13.6622 -19.4775
ltibia 63.3476
lfoot -14.17 3.61126
ltoes -7.00354
1350
root 20.5011 15.7593 -0.481621 -628.29 -91.466 256.038
lowerback 11.6233 1.00229 -1.57646
upperback 11.7089 0.49898 -0.0201483
thorax 5.82448 -0.170151 0.797306
lowerneck -16.1343 -2.2344 -3.71476
upperneck 7.618 -2.67778 3.99037
head 5.00728 -1.15326 1.61109
rclavicle -8.94531e-016 2.5345e-015
rhumerus 13.757 8.06562 -36.0004
rradius 65.5809
rwrist -9.01158
rhand -10.3434 26.1971
rfingers 7.12502
rthumb 15.653 -3.18968
lclavicle -8.94531e-016 2.5345e-015
lhumerus -11.5198 -20.52 83.3941
lradius 46.9884
lwrist 22.6946
lhand -12.35 39.9699
lfingers 7.12502
lthumb 13.7197 69.4977
rfemur -37.1584 -4.59118 16.3027
rtibia 60.7432
rfoot -6.22259 1.59041
rtoes 47.9359
lfemur -38.3308 13.7041 -19.4986
ltibia 63.3238
lfoot -14.1675 3.61104
ltoes -7.18132
1351
root 20.5003 15.7603 -0.483327 -629.78 -91.4838 257.532
lowerback 11.6405 0.996431 -1.62033
upperback 11.7238 0.486246 -0.0439297
thorax 5.83188 -0.179865 0.797446
lowerneck -15.8014 -2.23147 -3.50661
upperneck 7.3754 -2.7208 3.97664
head 4.87679 -1.17393 1.5717
rclavicle 1.98785e-015 -1.19271e-014
rhumerus 14.9204 7.6937 -35.1353
rradius 66.3413
rwrist -9.16322
rhand -10.1997 26.03
rfingers 7.12502
rthumb 15.7913 -3.3459
lclavicle 1.98785e-015 -1.19271e-014
lhumerus -11.4259 -21.1589 83.4526
lradius 47.103
lwrist 22.3668
lhand -12.4282 40.1578
lfingers 7.12502
lthumb 13.6443 69.6906
rfemur -37.1644 -4.55723 16.2922
rtibia 60.7509
rfoot -6.2135 1.62142
rtoes 47.9429
lfemur -38.3165 13.7561 -19.514
ltibia 63.3056
lfoot -14.1785 3.61024
ltoes -7.32775
1352
root 20.4995 15.7611 -0.485134 -631.598 -91.501 259.36
lowerback 11.6582 0.996042 -1.65615
upperback 11.7316 0.482216 -0.0756154
thorax 5.83089 -0.183858 0.784269
lowerneck -15.4751 -2.225 -3.27454
upperneck 7.15017 -2.76142 3.95489
head 4.75236 -1.19349 1.52636
rclavicle -1.80149e-015 2.83268e-015
rhumerus 16.0368 7.27823 -34.316
rradius 67.0983
rwrist -9.31937
rhand -10.0434 25.9322
rfingers 7.12502
rthumb 15.9418 -3.43177
lclavicle -1.80149e-015 2.83268e-015
lhumerus -11.3608 -21.7914 83.4995
lradius 47.2173
lwrist 21.9486
lhand -12.5435 40.3393
lfingers 7.12502
lthumb 13.5333 69.8795
rfemur -37.1797 -4.5114 16.2834
rtibia 60.759
rfoot -6.2023 1.65552
rtoes 47.9816
lfemur -38.3115 13.8113 -19.5261
ltibia 63.2953
lfoot -14.1933 3.60996
ltoes -7.41248
1353
root 20.4986 15.7615 -0.486798 -633.436 -91.5129 261.213
lowerback 11.6791 0.994715 -1.67681
upperback 11.7296 0.478884 -0.112048
thorax 5.81756 -0.185645 0.757653
lowerneck -15.1444 -2.21 -3.03248
upperneck 6.94215 -2.79046 3.92722
head 4.63203 -1.20773 1.47884
rclavicle -3.13086e-015 -2.33572e-015
rhumerus 17.1041 6.83706 -33.5321
rradius 67.8532
rwrist -9.4859
rhand -9.89589 25.9546
rfingers 7.12502
rthumb 16.0839 -3.3979
lclavicle -3.13086e-015 -2.33572e-015
lhumerus -11.3224 -22.3937 83.5427
lradius 47.3209
lwrist 21.474
lhand -12.7216 40.5732
lfingers 7.12502
lthumb 13.3615 70.1248
rfemur -37.2006 -4.46187 16.2813
rtibia 60.7642
rfoot -6.20217 1.68187
rtoes 48.0211
lfemur -38.3156 13.8604 -19.5304
ltibia 63.2923
lfoot -14.2028 3.60903
ltoes -7.4084
1354
root 20.4976 15.7618 -0.488268 -634.944 -91.514 262.739
lowerback 11.7046 0.9865 -1.68422
upperback 11.7228 0.467385 -0.142559
thorax 5.79658 -0.190572 0.730398
lowerneck -14.8168 -2.18855 -2.81536
upperneck 6.75024 -2.80511 3.90785
head 4.51725 -1.21519 1.43928
rclavicle 4.22417e-016 -5.59082e-015
rhumerus 18.1488 6.38203 -32.7681
rradius 68.5972
rwrist -9.66386
rhand -9.7684 26.108
rfingers 7.12502
rthumb 16.2067 -3.23452
lclavicle 4.22417e-016 -5.59082e-015
lhumerus -11.2926 -22.938 83.5935
lradius 47.3992
lwrist 21.0025
lhand -12.9854 40.9153
lfingers 7.12502
lthumb 13.1073 70.4834
rfemur -37.2206 -4.42105 16.2916
rtibia 60.7625
rfoot -6.21963 1.68986
rtoes 48.0315
lfemur -38.3259 13.8949 -19.5216
ltibia 63.2942
lfoot -14.2083 3.60538
ltoes -7.31517
1355
root 20.4966 15.7624 -0.48962 -635.962 -91.5018 263.775
lowerback 11.7272 0.969621 -1.68611
upperback 11.722 0.443876 -0.158486
thorax 5.7841 -0.202116 0.716145
lowerneck -14.4977 -2.16246 -2.63654
upperneck 6.55462 -2.80499 3.89672
head 4.40294 -1.21611 1.40972
rclavicle 2.30466e-015 -6.95746e-015
rhumerus 19.2061 5.91387 -32.0106
rradius 69.3207
rwrist -9.85281
rhand -9.67835 26.3468
rfingers 7.12502
rthumb 16.2934 -2.98871
lclavicle 2.30466e-015 -6.95746e-015
lhumerus -11.2531 -23.4086 83.6512
lradius 47.4521
lwrist 20.5955
lhand -13.3298 41.3486
lfingers 7.12502
lthumb 12.7753 70.9378
rfemur -37.2351 -4.39547 16.3163
rtibia 60.7513
rfoot -6.2463 1.67488
rtoes 48.0135
lfemur -38.3396 13.9122 -19.4987
ltibia 63.2988
lfoot -14.2133 3.60005
ltoes -7.18385
1356
root 20.4956 15.7636 -0.490915 -636.636 -91.4796 264.466
lowerback 11.735 0.947891 -1.68506
upperback 11.7377 0.41292 -0.162728
thorax 5.79796 -0.218575 0.712925
lowerneck -14.1796 -2.13215 -2.46843
upperneck 6.32905 -2.79365 3.87244
head 4.27921 -1.21309 1.37885
rclavicle 2.12451e-015 -2.70844e-015
rhumerus 20.2825 5.42998 -31.2494
rradius 70.0284
rwrist -10.0563
rhand -9.64723 26.5892
rfingers 7.12502
rthumb 16.3233 -2.74382
lclavicle 2.12451e-015 -2.70844e-015
lhumerus -11.1994 -23.8012 83.7018
lradius 47.4966
lwrist 20.2853
lhand -13.7274 41.7914
lfingers 7.12502
lthumb 12.3919 71.4041
rfemur -37.2435 -4.38098 16.351
rtibia 60.7318
rfoot -6.26835 1.64214
rtoes 47.9883
lfemur -38.3536 13.9202 -19.4654
ltibia 63.3049
lfoot -14.2165 3.59357
ltoes -7.07347
1357
root 20.4943 15.7651 -0.492184 -637.221 -91.4564 265.067
lowerback 11.7247 0.927973 -1.68219
upperback 11.7685 0.38388 -0.165482
thorax 5.83845 -0.234774 0.710033
lowerneck -13.8466 -2.09964 -2.26947
upperneck 6.06726 -2.7791 3.80938
head 4.14096 -1.21071 1.33154
rclavicle 1.36664e-015 4.8578e-015
rhumerus 21.3483 4.93609 -30.4763
rradius 70.7367
rwrist -10.2788
rhand -9.69345 26.7844
rfingers 7.12502
rthumb 16.2788 -2.55225
lclavicle 1.36664e-015 4.8578e-015
lhumerus -11.1486 -24.1213 83.7373
lradius 47.5565
lwrist 20.0878
lhand -14.1513 42.1948
lfingers 7.12502
lthumb 11.9832 71.8318
rfemur -37.2493 -4.37128 16.3859
rtibia 60.7097
rfoot -6.27512 1.59843
rtoes 47.9742
lfemur -38.3666 13.9273 -19.4315
ltibia 63.3119
lfoot -14.2166 3.58293
ltoes -6.98468
